FILE "Worldwide Soccer '98 (USA) - [Worldwide Soccer 23 v0.99 by retrodadandmodernlad].bin" BINARY
  TRACK 01 MODE1/2352
    INDEX 01 00:00:00
  TRACK 02 AUDIO
    PREGAP 00:02:00
    INDEX 01 38:07:17
  TRACK 03 AUDIO
    INDEX 01 42:25:47
  TRACK 04 AUDIO
    INDEX 01 47:24:46
  TRACK 05 AUDIO
    INDEX 01 52:18:50
  TRACK 06 AUDIO
    INDEX 01 53:55:26
